<svg width="247" height="48" viewBox="0 0 247 48" fill="none" xmlns="http://www.w3.org/2000/svg">
<g clip-path="url(#clip0_1_11072)">
<path d="M30.1456 0.0625L48.2055 18.1955L18.5872 47.9337L0.527344 29.8006L30.1456 0.0625Z" fill="#233B99"/>
<path d="M12.0957 18.0823L30.1556 -0.0507812L59.7738 29.6874L41.7139 47.8204L12.0957 18.0823Z" fill="#FF7549"/>
<path d="M77.5561 13.6673C78.6106 13.6673 79.5642 13.8883 80.4169 14.3302C81.2788 14.7721 81.9573 15.3981 82.4525 16.2083C82.9476 17.0184 83.1952 17.9483 83.1952 18.9978C83.1952 19.7251 83.0576 20.4063 82.7825 21.0416C82.5166 21.6676 82.0582 22.1325 81.4072 22.4363C83.2043 22.8782 84.1029 24.6412 84.1029 27.7253C84.1029 28.6828 83.8415 29.5666 83.319 30.3767C82.7963 31.1869 82.0902 31.8267 81.2008 32.2962C80.3114 32.7657 79.3441 33.0005 78.2988 33.0005H70.2666V13.6673H77.5561ZM77.061 20.9173C77.4277 20.9173 77.7624 20.8344 78.065 20.6687C78.3768 20.503 78.6198 20.2728 78.794 19.9782C78.9773 19.6744 79.0691 19.3384 79.0691 18.9702C79.0691 18.427 78.8764 17.9989 78.4914 17.6859C78.1063 17.3637 77.6295 17.2025 77.061 17.2025H74.3928V20.9173H77.061ZM77.8587 29.4929C78.3355 29.4929 78.7711 29.3824 79.1653 29.1615C79.5596 28.9313 79.8713 28.6183 80.1006 28.2224C80.3298 27.8174 80.4444 27.3663 80.4444 26.8691C80.4444 26.4456 80.3252 26.0452 80.0868 25.6677C79.8576 25.281 79.5458 24.968 79.1515 24.7287C78.7573 24.4893 78.3264 24.3696 77.8587 24.3696H74.3928V29.4929H77.8587ZM96.3181 13.6673C97.3542 13.6673 98.3032 13.9343 99.1651 14.4683C100.027 15.0023 100.705 15.7203 101.2 16.6226C101.705 17.5248 101.957 18.5098 101.957 19.5778C101.957 20.8114 101.655 21.9162 101.049 22.892C100.444 23.8587 99.6188 24.5952 98.5737 25.1015L103.14 33.0005H98.3812L94.035 25.4882H92.6047V33.0005H88.4785V13.6673H96.3181ZM95.823 21.3454C96.1806 21.3454 96.5106 21.2533 96.8132 21.0692C97.125 20.8758 97.3726 20.6227 97.5559 20.3097C97.7394 19.9874 97.831 19.6422 97.831 19.274C97.831 18.9057 97.7394 18.5651 97.5559 18.2521C97.3726 17.9298 97.125 17.6767 96.8132 17.4925C96.5106 17.2992 96.1806 17.2025 95.823 17.2025H92.6047V21.3454H95.823ZM117.104 13.6673L124.091 33.0005H119.717L118.617 29.9624H110.943L109.842 33.0005H105.469L112.456 13.6673H117.104ZM117.104 25.8196L114.766 19.4121L112.456 25.8196H117.104ZM127.4 13.6673H131.856L138.899 25.5158V13.6673H143.025V33.0005H138.568L131.527 21.152V33.0005H127.4V13.6673ZM154.089 13.6673C155.831 13.6673 157.436 14.1046 158.903 14.9792C160.38 15.8446 161.548 17.0184 162.411 18.5006C163.281 19.9736 163.717 21.5847 163.717 23.3339C163.717 25.0831 163.281 26.6988 162.411 28.181C161.548 29.654 160.38 30.8278 158.903 31.7024C157.436 32.5678 155.831 33.0005 154.089 33.0005H147.708V13.6673H154.089ZM154.089 28.8577C155.07 28.8577 155.983 28.6137 156.826 28.1258C157.67 27.6286 158.339 26.9566 158.834 26.1096C159.339 25.2626 159.591 24.3374 159.591 23.3339C159.591 22.3396 159.339 21.419 158.834 20.572C158.339 19.7251 157.67 19.053 156.826 18.5559C155.983 18.0587 155.07 17.8102 154.089 17.8102H151.833V28.8577H154.089ZM168.104 13.6673H172.231V33.0005H168.104V13.6673ZM177.308 13.6673H181.764L188.807 25.5158V13.6673H192.932V33.0005H188.476L181.435 21.152V33.0005H177.308V13.6673ZM205.984 33.3595C204.223 33.3595 202.619 32.9084 201.171 32.0062C199.73 31.0948 198.594 29.8704 197.759 28.3329C196.934 26.7955 196.521 25.1199 196.521 23.3063C196.521 21.4006 196.967 19.6882 197.856 18.1692C198.754 16.6502 199.937 15.4672 201.404 14.6202C202.871 13.764 204.425 13.3359 206.067 13.3359C207.46 13.3359 208.804 13.6627 210.096 14.3164C211.389 14.97 212.54 15.9689 213.549 17.313L209.862 19.3016C209.313 18.6848 208.707 18.2244 208.047 17.9206C207.386 17.6076 206.708 17.4511 206.011 17.4511C205.086 17.4511 204.209 17.7043 203.385 18.2106C202.569 18.717 201.909 19.4213 201.404 20.3235C200.9 21.2257 200.648 22.2476 200.648 23.3892C200.648 24.4571 200.891 25.4376 201.377 26.3306C201.863 27.2236 202.518 27.9278 203.343 28.4434C204.168 28.9589 205.067 29.2167 206.039 29.2167C206.919 29.2167 207.758 28.9774 208.556 28.4986C209.362 28.0199 210.037 27.311 210.578 26.372H207.992V22.7815H215.447C215.456 22.9012 215.461 23.0761 215.461 23.3063C215.461 25.1291 215.038 26.8093 214.195 28.3467C213.351 29.8842 212.205 31.104 210.757 32.0062C209.308 32.9084 207.717 33.3595 205.984 33.3595ZM232.949 23.2787L225.962 13.6397H231.051L235.508 19.7711L239.964 13.6397H245.052L238.065 23.2787L245.108 33.0005H239.99L235.508 26.8139L231.024 33.0005H225.907L232.949 23.2787Z" fill="#181A3F"/>
</g>
<defs>
<clipPath id="clip0_1_11072">
<rect width="247" height="48" fill="white"/>
</clipPath>
</defs>
</svg>
