<svg width="65" height="84" viewBox="0 0 65 84" fill="none" xmlns="http://www.w3.org/2000/svg">
<g clip-path="url(#clip0_1_11294)">
<path d="M55.1317 9.50235L18.7942 41.0501H0.512088V31.1677C0.512088 29.8754 0.43654 28.6591 0.663178 27.4428V27.2147C3.15619 11.4788 16.5278 0 32.3924 0C40.4758 0 48.1815 3.04075 54.1496 8.59012C54.5274 8.8942 54.8295 9.19827 55.1317 9.50235Z" fill="#FF7549"/>
<path d="M64.4991 32.3076C64.4991 39.1493 62.3083 44.7747 59.2109 49.4879H9.12402L18.8694 41.0498L55.207 9.50195C60.4952 14.8993 63.7437 21.8931 64.4236 29.4189C64.4991 30.3311 64.4991 31.3194 64.4991 32.3076Z" fill="#233B99"/>
<path d="M64.5 49.4873V83.9999H2.62793V55.1127L9.12488 49.4873H64.5Z" fill="#CDDCEB"/>
</g>
<defs>
<clipPath id="clip0_1_11294">
<rect width="65" height="84" fill="white"/>
</clipPath>
</defs>
</svg>
