<svg width="590" height="895" viewBox="0 0 590 895" fill="none" xmlns="http://www.w3.org/2000/svg">
<g clip-path="url(#clip0_1_11102)">
<mask id="mask0_1_11102" style="mask-type:alpha" maskUnits="userSpaceOnUse" x="0" y="-1" width="590" height="896">
<path d="M590 -0.00390625H0V894.996H590V-0.00390625Z" fill="#C4C4C4"/>
</mask>
<g mask="url(#mask0_1_11102)">
<path d="M590 -0.00390625H294.934V298.33H590V-0.00390625Z" fill="#FF7549"/>
<path opacity="0.72" d="M294.934 -0.00390625L589.999 298.329H294.934V-0.00390625Z" fill="white"/>
<path d="M294.934 298.33V596.664H-0.0654297L294.934 298.33Z" fill="#FF7549"/>
<path d="M590 596.662H294.934V894.996H590V596.662Z" fill="#FF7549"/>
<mask id="mask1_1_11102" style="mask-type:alpha" maskUnits="userSpaceOnUse" x="294" y="596" width="296" height="299">
<path d="M590 596.662H294.934V894.996H590V596.662Z" fill="#FF7549"/>
</mask>
<g mask="url(#mask1_1_11102)">
<path d="M630.633 596.661C816.034 596.661 966.331 748.657 966.331 936.153C966.331 1123.65 816.034 1275.64 630.633 1275.64C445.232 1275.64 294.935 1123.65 294.935 936.153C294.935 748.657 445.232 596.661 630.633 596.661Z" fill="white" fill-opacity="0.72"/>
</g>
<path d="M590 298.33H294.934V596.664H590V298.33Z" fill="#233B99"/>
<path d="M294.935 596.662H-0.0654297V894.996H294.935V596.662Z" fill="#233B99"/>
<path d="M-0.0654297 596.662L294.935 894.996H-0.0654297V596.662Z" fill="#CDDCEB"/>
<path opacity="0.1" d="M589.935 298.33H294.935V596.664H589.935V298.33Z" fill="white"/>
<path d="M294.935 -0.00390625H-0.0654297V298.33H294.935V-0.00390625Z" fill="#233B99"/>
<path d="M294.934 298.328C294.934 278.735 291.118 259.334 283.704 241.232C276.289 223.13 265.423 206.683 251.722 192.828C238.023 178.974 221.759 167.984 203.859 160.486C185.96 152.988 166.775 149.129 147.402 149.129C128.028 149.129 108.843 152.988 90.9434 160.486C73.0439 167.984 56.78 178.974 43.0803 192.828C29.3807 206.683 18.5136 223.13 11.0994 241.232C3.68517 259.334 -0.130861 278.735 -0.130859 298.328H147.402H294.934Z" fill="white" fill-opacity="0.12"/>
<path d="M294.934 -0.0038932C294.934 19.5893 291.118 38.9905 283.704 57.0923C276.289 75.194 265.423 91.6416 251.722 105.496C238.023 119.35 221.759 130.341 203.859 137.838C185.96 145.336 166.775 149.196 147.402 149.196C128.028 149.196 108.843 145.336 90.9434 137.838C73.0439 130.341 56.78 119.35 43.0803 105.496C29.3807 91.6416 18.5136 75.194 11.0994 57.0923C3.68517 38.9905 -0.130861 19.5893 -0.130859 -0.00390625L147.402 -0.0038932H294.934Z" fill="#CDDCEB"/>
<path d="M442.434 544.87C495.611 544.87 538.72 501.275 538.72 447.497C538.72 393.719 495.611 350.123 442.434 350.123C389.257 350.123 346.148 393.719 346.148 447.497C346.148 501.275 389.257 544.87 442.434 544.87Z" fill="#CDDCEB"/>
</g>
</g>
<defs>
<clipPath id="clip0_1_11102">
<rect width="590" height="895" fill="white"/>
</clipPath>
</defs>
</svg>
