<svg width="87" height="85" viewBox="0 0 87 85" fill="none" xmlns="http://www.w3.org/2000/svg">
<g clip-path="url(#clip0_1_11170)">
<path d="M42.0781 0C36.5524 2.41874e-07 31.0807 1.09929 25.9755 3.23512C20.8704 5.37094 16.2317 8.50147 12.3244 12.448C8.41708 16.3944 5.31763 21.0796 3.203 26.236C1.08838 31.3923 -4.8516e-07 36.9188 0 42.5C4.8517e-07 48.0812 1.08838 53.6077 3.20301 58.764C5.31763 63.9204 8.41709 68.6055 12.3244 72.552C16.2317 76.4985 20.8704 79.6291 25.9755 81.7649C31.0807 83.9007 36.5524 85 42.0781 85V0Z" fill="#233B99"/>
<path d="M64.539 65.1045C76.9438 65.1045 86.9999 54.9843 86.9999 42.5005C86.9999 30.0166 76.9438 19.8965 64.539 19.8965C52.1342 19.8965 42.0781 30.0166 42.0781 42.5005C42.0781 54.9843 52.1342 65.1045 64.539 65.1045Z" fill="#FF7549"/>
</g>
<defs>
<clipPath id="clip0_1_11170">
<rect width="87" height="85" fill="white"/>
</clipPath>
</defs>
</svg>
