<svg width="260" height="260" viewBox="0 0 260 260" fill="none" xmlns="http://www.w3.org/2000/svg">
<g clip-path="url(#clip0_1_11195)">
<path d="M259.687 0H0V260.156H259.687V0Z" fill="#FF7549"/>
<path d="M260 260.156C260 243.074 256.642 226.159 250.117 210.378C243.591 194.596 234.027 180.256 221.97 168.177C209.913 156.098 195.599 146.517 179.846 139.98C164.093 133.443 147.208 130.078 130.157 130.078C113.106 130.078 96.2213 133.443 80.468 139.98C64.7146 146.517 50.4008 156.098 38.3437 168.177C26.2867 180.256 16.7225 194.596 10.1972 210.378C3.67197 226.159 0.313475 243.074 0.313477 260.156H130.157H260Z" fill="white" fill-opacity="0.72"/>
</g>
<defs>
<clipPath id="clip0_1_11195">
<rect width="260" height="260" fill="white"/>
</clipPath>
</defs>
</svg>
