<svg width="62" height="84" viewBox="0 0 62 84" fill="none" xmlns="http://www.w3.org/2000/svg">
<g clip-path="url(#clip0_1_11303)">
<path d="M59.0172 26.5668C59.0172 27.9384 58.9444 29.2379 58.7261 30.5374C58.5078 31.8368 58.2167 33.2085 57.7801 34.4358H3.4937C3.42093 34.2192 3.27539 27.7219 3.27539 26.7834C3.27539 24.1123 3.63925 21.5133 4.43972 18.9866V18.9144C7.93268 7.79678 18.921 0 31.1463 0C46.5735 0.0721924 59.0172 11.9839 59.0172 26.5668Z" fill="#233B99"/>
<path d="M62 53.7512C62 70.4276 48.101 83.9998 31 83.9998C24.5235 83.9998 17.9742 81.7618 12.4437 77.7913C7.05869 73.8929 3.1291 68.3341 1.23708 62.1255C0.727686 60.4651 0.291084 58.7325 0.0727744 56.9999L0 56.2779V41.1175H20.1573V34.4355H57.7793C60.5446 39.0558 62 48.409 62 53.7512Z" fill="#FF7549"/>
</g>
<defs>
<clipPath id="clip0_1_11303">
<rect width="62" height="84" fill="white"/>
</clipPath>
</defs>
</svg>
