<svg width="84" height="84" viewBox="0 0 84 84" fill="none" xmlns="http://www.w3.org/2000/svg">
<g clip-path="url(#clip0_1_11132)">
<path d="M3.67176e-06 0C5.51552 0 10.977 1.08636 16.0727 3.19705C21.1684 5.30775 25.7984 8.40144 29.6985 12.3015C33.5985 16.2016 36.6922 20.8316 38.8029 25.9273C40.9136 31.0229 42 36.4844 42 42C42 47.5155 40.9136 52.977 38.8029 58.0726C36.6922 63.1683 33.5985 67.7983 29.6985 71.6984C25.7984 75.5985 21.1684 78.6922 16.0727 80.8028C10.977 82.9135 5.51552 83.9999 0 83.9999L3.67176e-06 0Z" fill="#FF7549"/>
<path d="M42 83.9999C47.5155 83.9999 52.977 82.9135 58.0727 80.8028C63.1684 78.6922 67.7984 75.5985 71.6985 71.6984C75.5985 67.7983 78.6922 63.1683 80.8029 58.0726C82.9136 52.977 84 47.5155 84 41.9999C84 36.4844 82.9136 31.0229 80.8029 25.9273C78.6922 20.8316 75.5985 16.2016 71.6985 12.3015C67.7984 8.40144 63.1684 5.30775 58.0727 3.19705C52.977 1.08636 47.5155 -4.82181e-07 42 0V83.9999Z" fill="#233B99"/>
</g>
<defs>
<clipPath id="clip0_1_11132">
<rect width="84" height="84" fill="white"/>
</clipPath>
</defs>
</svg>
