<svg width="662" height="662" viewBox="0 0 662 662" fill="none" xmlns="http://www.w3.org/2000/svg">
<g clip-path="url(#clip0_1_11275)">
<path d="M662 0H331V331H662V0Z" fill="#CDDCEB"/>
<path d="M331 331L0 662H331V331Z" fill="#233B99"/>
<path d="M496.5 331C405.097 331 331 405.097 331 496.5C331 587.903 405.097 662 496.5 662C587.903 662 662 587.903 662 496.5C662 405.097 587.903 331 496.5 331Z" fill="#FF7549"/>
<path opacity="0.72" d="M496.5 607.563C556.909 607.563 605.88 558.592 605.88 498.183C605.88 437.774 556.909 388.803 496.5 388.803C436.091 388.803 387.12 437.774 387.12 498.183C387.12 558.592 436.091 607.563 496.5 607.563Z" fill="white"/>
<path d="M331 0H0V331H331V0Z" fill="#233B99"/>
<path d="M331 331C331 309.045 326.719 287.305 318.402 267.022C310.085 246.738 297.894 228.308 282.526 212.784C267.158 197.259 248.913 184.945 228.834 176.543C208.755 168.141 187.234 163.817 165.5 163.817C143.766 163.817 122.245 168.141 102.166 176.543C82.0865 184.945 63.8419 197.259 48.4738 212.784C33.1057 228.308 20.9151 246.738 12.5979 267.022C4.28078 287.305 -1.90003e-06 309.045 0 331H165.5H331Z" fill="#FF7549"/>
<path d="M0 0C-1.90003e-06 21.9039 4.28078 40.6148 12.5979 60.8513C20.9151 81.0879 33.1057 99.4753 48.4738 114.964C63.8419 130.452 82.0865 142.738 102.166 151.12C122.245 159.503 143.766 163.817 165.5 163.817C187.234 163.817 208.755 159.503 228.834 151.12C248.913 142.738 267.158 130.452 282.526 114.964C297.894 99.4753 310.085 81.0879 318.402 60.8514C326.719 40.6148 331 21.9039 331 1.5149e-05H165.5L0 0Z" fill="white" fill-opacity="0.4"/>
</g>
<defs>
<clipPath id="clip0_1_11275">
<rect width="662" height="662" fill="white"/>
</clipPath>
</defs>
</svg>
