<svg width="91" height="92" viewBox="0 0 91 92" fill="none" xmlns="http://www.w3.org/2000/svg">
<g clip-path="url(#clip0_1_11153)">
<path d="M29.0512 92.0008C45.0957 92.0008 58.1024 78.9942 58.1024 62.9496C58.1024 46.9051 45.0957 33.8984 29.0512 33.8984C13.0067 33.8984 0 46.9051 0 62.9496C0 78.9942 13.0067 92.0008 29.0512 92.0008Z" fill="#CDDCEB"/>
<path d="M44.311 58.1024C60.3555 58.1024 73.3622 45.0957 73.3622 29.0512C73.3622 13.0067 60.3555 0 44.311 0C28.2664 0 15.2598 13.0067 15.2598 29.0512C15.2598 45.0957 28.2664 58.1024 44.311 58.1024Z" fill="#233B99"/>
<path d="M61.9487 92.0008C77.9932 92.0008 90.9999 78.9942 90.9999 62.9496C90.9999 46.9051 77.9932 33.8984 61.9487 33.8984C45.9041 33.8984 32.8975 46.9051 32.8975 62.9496C32.8975 78.9942 45.9041 92.0008 61.9487 92.0008Z" fill="#FF7549"/>
</g>
<defs>
<clipPath id="clip0_1_11153">
<rect width="91" height="92" fill="white"/>
</clipPath>
</defs>
</svg>
