<svg width="388" height="388" viewBox="0 0 388 388" fill="none" xmlns="http://www.w3.org/2000/svg">
<g clip-path="url(#clip0_1_11343)">
<path d="M388 0H0V388H388V0Z" fill="white"/>
<path d="M388 0H0V388H388V0Z" fill="#CDDCEB"/>
<g filter="url(#filter0_i_1_11343)">
<path d="M333.589 42.6641H54.4102V388.747H333.589V42.6641Z" fill="#FF7549"/>
</g>
<mask id="mask0_1_11343" style="mask-type:alpha" maskUnits="userSpaceOnUse" x="54" y="42" width="280" height="347">
<path d="M333.589 42.6641H54.4092V388.747H333.589V42.6641Z" fill="#FF7549"/>
</mask>
<g mask="url(#mask0_1_11343)">
<path opacity="0.24" d="M118.486 125.262C114.865 125.262 111.564 124.338 108.584 122.49C105.623 120.623 103.284 118.114 101.568 114.964C99.8702 111.815 99.0215 108.382 99.0215 104.666C99.0215 100.762 99.9364 97.2543 101.766 94.1423C103.614 91.0302 106.047 88.6066 109.065 86.8713C112.083 85.1172 115.28 84.2402 118.656 84.2402C121.522 84.2402 124.286 84.9099 126.945 86.2492C129.605 87.5879 131.972 89.6343 134.046 92.3882L126.464 96.4622C125.332 95.1983 124.088 94.2556 122.73 93.6329C121.372 92.9916 119.976 92.671 118.542 92.671C116.638 92.671 114.836 93.1899 113.139 94.2272C111.46 95.2646 110.102 96.7076 109.065 98.5556C108.028 100.404 107.509 102.498 107.509 104.836C107.509 107.024 108.009 109.033 109.008 110.862C110.008 112.692 111.356 114.134 113.054 115.191C114.752 116.247 116.6 116.775 118.599 116.775C120.41 116.775 122.135 116.285 123.777 115.304C125.436 114.323 126.822 112.871 127.935 110.947H122.616V103.592H137.95C137.969 103.837 137.979 104.195 137.979 104.666C137.979 108.401 137.111 111.843 135.376 114.993C133.641 118.143 131.283 120.642 128.303 122.49C125.323 124.338 122.051 125.262 118.486 125.262ZM160 84.9195C162.131 84.9195 164.084 85.4662 165.856 86.5602C167.629 87.6542 169.025 89.125 170.044 90.9736C171.081 92.8222 171.599 94.8402 171.599 97.0277C171.599 99.555 170.977 101.818 169.732 103.818C168.487 105.798 166.79 107.307 164.64 108.344L174.033 124.527H164.244L155.304 109.136H152.361V124.527H143.874V84.9195H160ZM158.982 100.649C159.717 100.649 160.396 100.46 161.019 100.084C161.66 99.687 162.169 99.1686 162.547 98.5273C162.923 97.8673 163.112 97.1597 163.112 96.4056C163.112 95.651 162.923 94.953 162.547 94.3122C162.169 93.6516 161.66 93.1332 161.019 92.7559C160.396 92.3599 159.717 92.1616 158.982 92.1616H152.361V100.649H158.982ZM200.494 84.9195L214.866 124.527H205.869L203.606 118.303H187.819L185.556 124.527H176.56L190.932 84.9195H200.494ZM200.494 109.816L195.684 96.6883L190.932 109.816H200.494ZM234.347 84.9195C236.478 84.9195 238.431 85.4759 240.203 86.5886C241.995 87.6825 243.41 89.1533 244.447 91.0019C245.485 92.85 246.003 94.8589 246.003 97.0277C246.003 99.2157 245.466 101.234 244.391 103.082C243.335 104.93 241.91 106.402 240.119 107.496C238.327 108.59 236.403 109.136 234.347 109.136H227.897V124.527H219.409V84.9195H234.347ZM233.385 100.649C234.121 100.649 234.8 100.46 235.422 100.084C236.064 99.687 236.573 99.1686 236.95 98.5273C237.327 97.8673 237.516 97.1597 237.516 96.4056C237.516 95.651 237.327 94.953 236.95 94.3122C236.573 93.6516 236.064 93.1332 235.422 92.7559C234.8 92.3599 234.121 92.1616 233.385 92.1616H227.897V100.649H233.385ZM281.858 84.9195V124.527H273.37V107.552H259.338V124.527H250.85V84.9195H259.338V99.0649H273.37V84.9195H281.858ZM290.047 84.9195H298.534V124.527H290.047V84.9195ZM323.928 125.262C320.402 125.262 317.148 124.338 314.168 122.49C311.188 120.642 308.821 118.152 307.067 115.021C305.332 111.872 304.464 108.439 304.464 104.723C304.464 100.989 305.332 97.5562 307.067 94.425C308.821 91.2755 311.188 88.7856 314.168 86.9562C317.148 85.1076 320.402 84.1836 323.928 84.1836C327.06 84.1836 329.973 84.9099 332.671 86.3619C335.387 87.8145 337.659 89.8043 339.489 92.3316L331.907 96.4056C330.888 95.2362 329.691 94.3213 328.314 93.6613C326.937 93.0012 325.475 92.671 323.928 92.671C321.948 92.671 320.109 93.2086 318.412 94.2839C316.733 95.3586 315.404 96.8203 314.423 98.6689C313.442 100.517 312.952 102.535 312.952 104.723C312.952 106.892 313.442 108.901 314.423 110.749C315.422 112.597 316.762 114.069 318.44 115.163C320.119 116.237 321.948 116.775 323.928 116.775C325.475 116.775 326.937 116.445 328.314 115.785C329.691 115.106 330.888 114.172 331.907 112.984L339.489 117.114C337.659 119.642 335.387 121.632 332.671 123.084C329.973 124.537 327.06 125.262 323.928 125.262ZM372.446 84.9195C376.029 84.9195 379.33 85.8152 382.348 87.6072C385.384 89.3799 387.789 91.7849 389.561 94.821C391.353 97.8389 392.249 101.14 392.249 104.723C392.249 108.307 391.353 111.617 389.561 114.653C387.789 117.671 385.384 120.076 382.348 121.868C379.33 123.64 376.029 124.527 372.446 124.527H359.318V84.9195H372.446ZM372.446 116.04C374.464 116.04 376.34 115.54 378.075 114.54C379.811 113.522 381.187 112.145 382.206 110.409C383.243 108.675 383.762 106.779 383.762 104.723C383.762 102.686 383.243 100.8 382.206 99.0649C381.187 97.3296 379.811 95.9529 378.075 94.9343C376.34 93.9157 374.464 93.4069 372.446 93.4069H367.806V116.04H372.446ZM398.164 84.9195H423.399V93.4069H406.651V99.0649H419.552V107.552H406.651V116.04H423.399V124.527H398.164V84.9195ZM444.089 125.262C441.864 125.262 439.723 124.904 437.667 124.188C435.612 123.471 433.82 122.443 432.292 121.104C430.783 119.765 429.699 118.19 429.039 116.379L437.017 113.437C437.205 114.002 437.63 114.54 438.29 115.049C438.969 115.559 439.808 115.973 440.808 116.294C441.826 116.615 442.92 116.775 444.089 116.775C445.221 116.775 446.287 116.615 447.286 116.294C448.305 115.955 449.116 115.492 449.72 114.908C450.342 114.304 450.653 113.626 450.653 112.871C450.653 111.777 450.021 110.919 448.758 110.297C447.512 109.674 445.957 109.231 444.089 108.967C439.412 108.288 435.734 106.968 433.056 105.006C430.378 103.044 429.039 100.234 429.039 96.575C429.039 94.1797 429.727 92.0393 431.104 90.1532C432.481 88.2672 434.319 86.8055 436.621 85.7682C438.941 84.7116 441.43 84.1836 444.089 84.1836C446.334 84.1836 448.484 84.5422 450.54 85.2589C452.595 85.9756 454.378 87.0129 455.887 88.3709C457.414 89.7102 458.499 91.2943 459.14 93.1236L451.162 96.0096C450.973 95.4436 450.54 94.9156 449.861 94.425C449.182 93.9157 448.324 93.5106 447.286 93.2086C446.249 92.8879 445.127 92.7276 443.92 92.7276C442.845 92.7276 441.817 92.8976 440.836 93.2369C439.855 93.5763 439.053 94.0477 438.431 94.6516C437.828 95.2362 437.526 95.8776 437.526 96.575C437.526 97.537 437.799 98.2729 438.346 98.7822C438.912 99.2723 439.61 99.6213 440.44 99.8287C441.27 100.036 442.486 100.253 444.089 100.48C446.937 100.894 449.483 101.621 451.728 102.658C453.991 103.695 455.792 105.072 457.132 106.789C458.471 108.505 459.14 110.532 459.14 112.871C459.14 115.266 458.452 117.407 457.075 119.293C455.717 121.179 453.888 122.65 451.586 123.707C449.286 124.744 446.787 125.262 444.089 125.262ZM482.293 125.262C478.672 125.262 475.371 124.338 472.391 122.49C469.43 120.623 467.091 118.114 465.375 114.964C463.677 111.815 462.829 108.382 462.829 104.666C462.829 100.762 463.744 97.2543 465.573 94.1423C467.421 91.0302 469.854 88.6066 472.872 86.8713C475.89 85.1172 479.087 84.2402 482.463 84.2402C485.33 84.2402 488.093 84.9099 490.752 86.2492C493.412 87.5879 495.779 89.6343 497.853 92.3882L490.271 96.4622C489.139 95.1983 487.895 94.2556 486.537 93.6329C485.179 92.9916 483.783 92.671 482.349 92.671C480.445 92.671 478.644 93.1899 476.946 94.2272C475.268 95.2646 473.91 96.7076 472.872 98.5556C471.835 100.404 471.316 102.498 471.316 104.836C471.316 107.024 471.816 109.033 472.816 110.862C473.815 112.692 475.163 114.134 476.861 115.191C478.559 116.247 480.407 116.775 482.406 116.775C484.217 116.775 485.943 116.285 487.584 115.304C489.243 114.323 490.63 112.871 491.742 110.947H486.423V103.592H501.758C501.776 103.837 501.786 104.195 501.786 104.666C501.786 108.401 500.918 111.843 499.183 114.993C497.448 118.143 495.09 120.642 492.11 122.49C489.13 124.338 485.858 125.262 482.293 125.262ZM508.53 84.9195H517.017V124.527H508.53V84.9195ZM525.198 84.9195H534.364L548.848 109.193V84.9195H557.335V124.527H548.169L533.685 100.253V124.527H525.198V84.9195Z" fill="white"/>
<path d="M118.486 119.798C114.865 119.798 111.564 118.873 108.584 117.025C105.623 115.158 103.284 112.649 101.568 109.5C99.8702 106.35 99.0215 102.917 99.0215 99.2015C99.0215 95.2975 99.9364 91.7889 101.766 88.6769C103.614 85.5649 106.047 83.1412 109.065 81.4064C112.083 79.6524 115.28 78.7754 118.656 78.7754C121.522 78.7754 124.286 79.4445 126.945 80.7838C129.605 82.1231 131.972 84.1695 134.046 86.9229L126.464 90.9969C125.332 89.7335 124.088 88.7902 122.73 88.1676C121.372 87.5268 119.976 87.2061 118.542 87.2061C116.638 87.2061 114.836 87.7245 113.139 88.7619C111.46 89.7992 110.102 91.2422 109.065 93.0903C108.028 94.9389 107.509 97.0322 107.509 99.3709C107.509 101.559 108.009 103.568 109.008 105.397C110.008 107.227 111.356 108.67 113.054 109.726C114.752 110.782 116.6 111.31 118.599 111.31C120.41 111.31 122.135 110.82 123.777 109.839C125.436 108.858 126.822 107.406 127.935 105.482H122.616V98.1262H137.95C137.969 98.3715 137.979 98.7296 137.979 99.2015C137.979 102.936 137.111 106.378 135.376 109.528C133.641 112.677 131.283 115.176 128.303 117.025C125.323 118.873 122.051 119.798 118.486 119.798ZM160 79.4541C162.131 79.4541 164.084 80.0009 165.856 81.0948C167.629 82.1888 169.025 83.6601 170.044 85.5082C171.081 87.3568 171.599 89.3749 171.599 91.5628C171.599 94.0902 170.977 96.3535 169.732 98.3528C168.487 100.333 166.79 101.842 164.64 102.88L174.033 119.062H164.244L155.304 103.672H152.361V119.062H143.874V79.4541H160ZM158.982 95.1842C159.717 95.1842 160.396 94.9955 161.019 94.6182C161.66 94.2222 162.169 93.7032 162.547 93.0625C162.923 92.4019 163.112 91.6948 163.112 90.9402C163.112 90.1861 162.923 89.4882 162.547 88.8468C162.169 88.1868 161.66 87.6679 161.019 87.2906C160.396 86.8945 159.717 86.6968 158.982 86.6968H152.361V95.1842H158.982ZM200.494 79.4541L214.866 119.062H205.869L203.606 112.838H187.819L185.556 119.062H176.56L190.932 79.4541H200.494ZM200.494 104.35L195.684 91.2235L190.932 104.35H200.494ZM234.347 79.4541C236.478 79.4541 238.431 80.0105 240.203 81.1232C241.995 82.2172 243.41 83.6885 244.447 85.5365C245.485 87.3852 246.003 89.3936 246.003 91.5628C246.003 93.7508 245.466 95.7688 244.391 97.6169C243.335 99.4655 241.91 100.937 240.119 102.03C238.327 103.124 236.403 103.672 234.347 103.672H227.897V119.062H219.409V79.4541H234.347ZM233.385 95.1842C234.121 95.1842 234.8 94.9955 235.422 94.6182C236.064 94.2222 236.573 93.7032 236.95 93.0625C237.327 92.4019 237.516 91.6948 237.516 90.9402C237.516 90.1861 237.327 89.4882 236.95 88.8468C236.573 88.1868 236.064 87.6679 235.422 87.2906C234.8 86.8945 234.121 86.6968 233.385 86.6968H227.897V95.1842H233.385ZM281.858 79.4541V119.062H273.37V102.087H259.338V119.062H250.85V79.4541H259.338V93.5996H273.37V79.4541H281.858ZM290.047 79.4541H298.534V119.062H290.047V79.4541ZM323.928 119.798C320.402 119.798 317.148 118.873 314.168 117.025C311.188 115.176 308.821 112.687 307.067 109.556C305.332 106.406 304.464 102.974 304.464 99.2582C304.464 95.5235 305.332 92.0909 307.067 88.9601C308.821 85.8102 311.188 83.3208 314.168 81.4909C317.148 79.6428 320.402 78.7188 323.928 78.7188C327.06 78.7188 329.973 79.4445 332.671 80.8971C335.387 82.3492 337.659 84.3389 339.489 86.8662L331.907 90.9402C330.888 89.7709 329.691 88.8565 328.314 88.1959C326.937 87.5359 325.475 87.2061 323.928 87.2061C321.948 87.2061 320.109 87.7432 318.412 88.8185C316.733 89.8938 315.404 91.3555 314.423 93.2035C313.442 95.0522 312.952 97.0702 312.952 99.2582C312.952 101.427 313.442 103.436 314.423 105.284C315.422 107.133 316.762 108.603 318.44 109.697C320.119 110.773 321.948 111.31 323.928 111.31C325.475 111.31 326.937 110.98 328.314 110.32C329.691 109.641 330.888 108.707 331.907 107.519L339.489 111.65C337.659 114.177 335.387 116.167 332.671 117.619C329.973 119.071 327.06 119.798 323.928 119.798ZM372.446 79.4541C376.029 79.4541 379.33 80.3498 382.348 82.1418C385.384 83.9145 387.789 86.3195 389.561 89.3562C391.353 92.3736 392.249 95.6742 392.249 99.2582C392.249 102.842 391.353 106.152 389.561 109.188C387.789 112.206 385.384 114.611 382.348 116.402C379.33 118.176 376.029 119.062 372.446 119.062H359.318V79.4541H372.446ZM372.446 110.574C374.464 110.574 376.34 110.075 378.075 109.075C379.811 108.057 381.187 106.68 382.206 104.945C383.243 103.209 383.762 101.314 383.762 99.2582C383.762 97.2209 383.243 95.3349 382.206 93.5996C381.187 91.8648 379.811 90.4875 378.075 89.4694C376.34 88.4508 374.464 87.9415 372.446 87.9415H367.806V110.574H372.446ZM398.164 79.4541H423.399V87.9415H406.651V93.5996H419.552V102.087H406.651V110.574H423.399V119.062H398.164V79.4541ZM444.089 119.798C441.864 119.798 439.723 119.439 437.667 118.722C435.612 118.006 433.82 116.978 432.292 115.639C430.783 114.299 429.699 112.724 429.039 110.914L437.017 107.972C437.205 108.538 437.63 109.075 438.29 109.585C438.969 110.093 439.808 110.509 440.808 110.829C441.826 111.15 442.92 111.31 444.089 111.31C445.221 111.31 446.287 111.15 447.286 110.829C448.305 110.489 449.116 110.028 449.72 109.443C450.342 108.84 450.653 108.16 450.653 107.406C450.653 106.312 450.021 105.454 448.758 104.831C447.512 104.209 445.957 103.766 444.089 103.502C439.412 102.823 435.734 101.502 433.056 99.5409C430.378 97.5795 429.039 94.7689 429.039 91.1102C429.039 88.7148 429.727 86.5739 431.104 84.6879C432.481 82.8018 434.319 81.3402 436.621 80.3028C438.941 79.2468 441.43 78.7188 444.089 78.7188C446.334 78.7188 448.484 79.0768 450.54 79.7935C452.595 80.5102 454.378 81.5475 455.887 82.9055C457.414 84.2448 458.499 85.8289 459.14 87.6588L451.162 90.5442C450.973 89.9782 450.54 89.4502 449.861 88.9601C449.182 88.4508 448.324 88.0452 447.286 87.7432C446.249 87.4226 445.127 87.2622 443.92 87.2622C442.845 87.2622 441.817 87.4322 440.836 87.7715C439.855 88.1114 439.053 88.5828 438.431 89.1862C437.828 89.7709 437.526 90.4122 437.526 91.1102C437.526 92.0722 437.799 92.8075 438.346 93.3169C438.912 93.8075 439.61 94.1559 440.44 94.3638C441.27 94.5712 442.486 94.7882 444.089 95.0142C446.937 95.4295 449.483 96.1552 451.728 97.1926C453.991 98.2299 455.792 99.6072 457.132 101.323C458.471 103.039 459.14 105.067 459.14 107.406C459.14 109.801 458.452 111.942 457.075 113.828C455.717 115.714 453.888 117.185 451.586 118.241C449.286 119.279 446.787 119.798 444.089 119.798ZM482.293 119.798C478.672 119.798 475.371 118.873 472.391 117.025C469.43 115.158 467.091 112.649 465.375 109.5C463.677 106.35 462.829 102.917 462.829 99.2015C462.829 95.2975 463.744 91.7889 465.573 88.6769C467.421 85.5649 469.854 83.1412 472.872 81.4064C475.89 79.6524 479.087 78.7754 482.463 78.7754C485.33 78.7754 488.093 79.4445 490.752 80.7838C493.412 82.1231 495.779 84.1695 497.853 86.9229L490.271 90.9969C489.139 89.7335 487.895 88.7902 486.537 88.1676C485.179 87.5268 483.783 87.2061 482.349 87.2061C480.445 87.2061 478.644 87.7245 476.946 88.7619C475.268 89.7992 473.91 91.2422 472.872 93.0903C471.835 94.9389 471.316 97.0322 471.316 99.3709C471.316 101.559 471.816 103.568 472.816 105.397C473.815 107.227 475.163 108.67 476.861 109.726C478.559 110.782 480.407 111.31 482.406 111.31C484.217 111.31 485.943 110.82 487.584 109.839C489.243 108.858 490.63 107.406 491.742 105.482H486.423V98.1262H501.758C501.776 98.3715 501.786 98.7296 501.786 99.2015C501.786 102.936 500.918 106.378 499.183 109.528C497.448 112.677 495.09 115.176 492.11 117.025C489.13 118.873 485.858 119.798 482.293 119.798ZM508.53 79.4541H517.017V119.062H508.53V79.4541ZM525.198 79.4541H534.364L548.848 103.728V79.4541H557.335V119.062H548.169L533.685 94.7881V119.062H525.198V79.4541Z" fill="white"/>
<path opacity="0.24" d="M62.1398 143.414C65.7232 143.414 69.0239 144.309 72.0418 146.101C75.0785 147.874 77.4829 150.279 79.2562 153.316C81.0476 156.333 81.9439 159.634 81.9439 163.217C81.9439 166.801 81.0476 170.111 79.2562 173.147C77.4829 176.165 75.0785 178.57 72.0418 180.362C69.0239 182.135 65.7232 183.021 62.1398 183.021H49.0127V143.414H62.1398ZM62.1398 174.534C64.1578 174.534 66.0348 174.034 67.7696 173.034C69.5049 172.016 70.8816 170.639 71.9002 168.904C72.9376 167.169 73.4565 165.273 73.4565 163.217C73.4565 161.18 72.9376 159.294 71.9002 157.559C70.8816 155.824 69.5049 154.447 67.7696 153.428C66.0348 152.41 64.1578 151.901 62.1398 151.901H57.4998V174.534H62.1398ZM87.8579 143.414H113.093V151.901H96.3453V157.559H109.246V166.046H96.3453V174.534H113.093V183.021H87.8579V143.414ZM133.784 183.757C131.558 183.757 129.418 183.398 127.362 182.682C125.306 181.965 123.514 180.937 121.986 179.598C120.478 178.259 119.393 176.684 118.733 174.873L126.711 171.931C126.899 172.497 127.324 173.034 127.984 173.544C128.663 174.053 129.502 174.468 130.502 174.788C131.52 175.109 132.614 175.269 133.784 175.269C134.915 175.269 135.981 175.109 136.981 174.788C137.999 174.449 138.81 173.987 139.414 173.402C140.036 172.799 140.347 172.12 140.347 171.365C140.347 170.271 139.715 169.413 138.452 168.791C137.207 168.168 135.651 167.725 133.784 167.461C129.106 166.782 125.428 165.462 122.75 163.5C120.072 161.538 118.733 158.728 118.733 155.07C118.733 152.674 119.421 150.533 120.798 148.647C122.175 146.761 124.014 145.3 126.315 144.262C128.635 143.206 131.124 142.678 133.784 142.678C136.028 142.678 138.178 143.036 140.234 143.753C142.29 144.47 144.073 145.507 145.581 146.865C147.109 148.204 148.194 149.788 148.835 151.618L140.857 154.504C140.668 153.938 140.234 153.41 139.555 152.919C138.876 152.41 138.018 152.005 136.981 151.703C135.943 151.382 134.821 151.222 133.614 151.222C132.539 151.222 131.511 151.392 130.53 151.731C129.55 152.07 128.748 152.542 128.125 153.146C127.522 153.73 127.22 154.372 127.22 155.07C127.22 156.031 127.494 156.767 128.041 157.276C128.606 157.766 129.304 158.115 130.134 158.323C130.964 158.531 132.181 158.747 133.784 158.974C136.632 159.388 139.178 160.115 141.422 161.152C143.686 162.189 145.487 163.566 146.826 165.283C148.165 166.999 148.835 169.026 148.835 171.365C148.835 173.76 148.146 175.901 146.769 177.787C145.411 179.673 143.582 181.145 141.281 182.201C138.98 183.238 136.481 183.757 133.784 183.757ZM155.898 143.414H164.385V183.021H155.898V143.414ZM189.78 183.757C186.159 183.757 182.858 182.833 179.878 180.984C176.917 179.117 174.578 176.608 172.862 173.459C171.165 170.309 170.315 166.876 170.315 163.161C170.315 159.256 171.23 155.748 173.06 152.636C174.908 149.524 177.341 147.101 180.359 145.365C183.377 143.611 186.573 142.734 189.949 142.734C192.817 142.734 195.58 143.404 198.239 144.743C200.898 146.082 203.265 148.129 205.34 150.882L197.758 154.956C196.627 153.692 195.381 152.75 194.023 152.127C192.665 151.486 191.27 151.165 189.837 151.165C187.931 151.165 186.13 151.684 184.433 152.721C182.754 153.759 181.396 155.202 180.359 157.05C179.322 158.898 178.803 160.992 178.803 163.33C178.803 165.518 179.303 167.527 180.302 169.357C181.302 171.186 182.651 172.629 184.348 173.685C186.045 174.741 187.894 175.269 189.893 175.269C191.704 175.269 193.43 174.779 195.07 173.798C196.73 172.818 198.117 171.365 199.229 169.441H193.911V162.086H209.244C209.263 162.331 209.273 162.689 209.273 163.161C209.273 166.895 208.405 170.337 206.67 173.487C204.935 176.637 202.577 179.136 199.597 180.984C196.617 182.833 193.345 183.757 189.78 183.757ZM215.168 143.414H224.335L238.82 167.687V143.414H247.307V183.021H238.141L223.656 158.747V183.021H215.168V143.414Z" fill="white"/>
<path d="M61.6552 137.866C65.2391 137.866 68.5398 138.762 71.5572 140.554C74.5939 142.327 76.9989 144.732 78.7716 147.768C80.5636 150.786 81.4593 154.086 81.4593 157.67C81.4593 161.254 80.5636 164.563 78.7716 167.6C76.9989 170.618 74.5939 173.022 71.5572 174.814C68.5398 176.587 65.2391 177.474 61.6552 177.474H48.5283V137.866H61.6552ZM61.6552 168.986C63.6738 168.986 65.5502 168.487 67.2855 167.487C69.0208 166.469 70.3975 165.092 71.4162 163.357C72.4535 161.621 72.9719 159.726 72.9719 157.67C72.9719 155.633 72.4535 153.747 71.4162 152.012C70.3975 150.276 69.0208 148.9 67.2855 147.881C65.5502 146.863 63.6738 146.354 61.6552 146.354H57.0158V168.986H61.6552ZM87.3733 137.866H112.609V146.354H95.8607V152.012H108.761V160.499H95.8607V168.986H112.609V177.474H87.3733V137.866ZM133.299 178.21C131.074 178.21 128.933 177.851 126.877 177.134C124.821 176.418 123.03 175.389 121.502 174.051C119.993 172.711 118.909 171.136 118.248 169.326L126.227 166.384C126.415 166.95 126.84 167.487 127.5 167.996C128.179 168.505 129.018 168.921 130.018 169.241C131.036 169.562 132.13 169.722 133.299 169.722C134.431 169.722 135.497 169.562 136.496 169.241C137.515 168.901 138.326 168.44 138.929 167.855C139.552 167.251 139.863 166.572 139.863 165.818C139.863 164.724 139.231 163.866 137.967 163.243C136.723 162.621 135.167 162.178 133.299 161.914C128.622 161.235 124.944 159.914 122.266 157.953C119.587 155.992 118.248 153.181 118.248 149.522C118.248 147.127 118.937 144.986 120.314 143.1C121.69 141.214 123.529 139.752 125.831 138.715C128.15 137.659 130.64 137.131 133.299 137.131C135.544 137.131 137.694 137.489 139.75 138.206C141.806 138.922 143.588 139.96 145.097 141.318C146.625 142.657 147.709 144.241 148.35 146.07L140.372 148.956C140.184 148.39 139.75 147.862 139.071 147.372C138.392 146.863 137.534 146.457 136.496 146.155C135.459 145.835 134.337 145.674 133.13 145.674C132.055 145.674 131.027 145.844 130.046 146.184C129.065 146.523 128.264 146.995 127.641 147.598C127.038 148.183 126.736 148.824 126.736 149.522C126.736 150.484 127.009 151.22 127.556 151.729C128.122 152.219 128.82 152.568 129.65 152.775C130.48 152.983 131.696 153.2 133.299 153.426C136.147 153.841 138.694 154.567 140.938 155.605C143.202 156.642 145.003 158.019 146.342 159.735C147.681 161.451 148.35 163.479 148.35 165.818C148.35 168.213 147.662 170.354 146.285 172.24C144.927 174.126 143.098 175.597 140.797 176.653C138.495 177.691 135.996 178.21 133.299 178.21ZM155.414 137.866H163.901V177.474H155.414V137.866ZM189.295 178.21C185.674 178.21 182.373 177.285 179.393 175.437C176.433 173.57 174.094 171.061 172.377 167.912C170.68 164.762 169.831 161.329 169.831 157.614C169.831 153.709 170.746 150.201 172.576 147.089C174.424 143.977 176.857 141.553 179.874 139.818C182.892 138.064 186.089 137.187 189.465 137.187C192.332 137.187 195.095 137.857 197.755 139.196C200.414 140.535 202.781 142.582 204.856 145.335L197.274 149.409C196.142 148.146 194.897 147.202 193.539 146.58C192.181 145.938 190.785 145.618 189.352 145.618C187.447 145.618 185.646 146.137 183.948 147.174C182.27 148.211 180.912 149.654 179.874 151.502C178.837 153.351 178.319 155.444 178.319 157.783C178.319 159.971 178.818 161.98 179.818 163.809C180.818 165.639 182.166 167.082 183.863 168.138C185.561 169.194 187.409 169.722 189.409 169.722C191.219 169.722 192.945 169.232 194.586 168.251C196.246 167.27 197.632 165.818 198.745 163.894H193.426V156.538H208.76C208.779 156.784 208.788 157.142 208.788 157.614C208.788 161.348 207.921 164.79 206.185 167.94C204.45 171.089 202.093 173.588 199.113 175.437C196.133 177.285 192.86 178.21 189.295 178.21ZM214.684 137.866H223.85L238.335 162.14V137.866H246.823V177.474H237.657L223.171 153.2V177.474H214.684V137.866Z" fill="white"/>
<g opacity="0.7">
<mask id="mask1_1_11343" style="mask-type:alpha" maskUnits="userSpaceOnUse" x="54" y="219" width="280" height="187">
<g opacity="0.7">
<path opacity="0.7" d="M54.4092 219.408L54.4092 405.527H333.588V219.408L54.4092 219.408Z" fill="#181A3F"/>
</g>
</mask>
<g mask="url(#mask1_1_11343)">
<g opacity="0.7">
<path opacity="0.3" d="M54.4082 219.408L54.4082 312.488H147.468V219.408H54.4082Z" fill="white"/>
<path opacity="0.72" d="M54.4082 312.489L147.468 219.408V312.489H54.4082Z" fill="white"/>
<path opacity="0.6" d="M147.47 312.488H240.529V405.548L147.47 312.488Z" fill="white"/>
<path opacity="0.2" d="M240.528 219.408V312.488H333.588V219.408H240.528Z" fill="white"/>
<mask id="mask2_1_11343" style="mask-type:alpha" maskUnits="userSpaceOnUse" x="240" y="219" width="94" height="94">
<g opacity="0.7">
<path opacity="0.7" d="M240.527 219.408V312.488H333.587V219.408H240.527Z" fill="#FF7549"/>
</g>
</mask>
<g mask="url(#mask2_1_11343)">
<g opacity="0.7">
<path opacity="0.72" d="M240.527 206.591C240.527 148.105 287.939 100.693 346.425 100.693C404.911 100.693 452.323 148.105 452.323 206.591C452.323 265.077 404.911 312.489 346.425 312.489C287.939 312.489 240.527 265.077 240.527 206.591Z" fill="white"/>
</g>
<path opacity="0.4" d="M147.47 219.408V312.488H240.529V219.408H147.47Z" fill="white"/>
</g>
</g>
</g>
</g>
</g>
</g>
<defs>
<filter id="filter0_i_1_11343" x="54.4102" y="42.6641" width="279.18" height="370.143" filterUnits="userSpaceOnUse" color-interpolation-filters="sRGB">
<feFlood flood-opacity="0" result="BackgroundImageFix"/>
<feBlend mode="normal" in="SourceGraphic" in2="BackgroundImageFix" result="shape"/>
<feColorMatrix in="SourceAlpha" type="matrix" values="0 0 0 0 0 0 0 0 0 0 0 0 0 0 0 0 0 0 127 0" result="hardAlpha"/>
<feOffset dy="24.0604"/>
<feGaussianBlur stdDeviation="37.8092"/>
<feComposite in2="hardAlpha" operator="arithmetic" k2="-1" k3="1"/>
<feColorMatrix type="matrix" values="0 0 0 0 0 0 0 0 0 0 0 0 0 0 0 0 0 0 0.17 0"/>
<feBlend mode="normal" in2="shape" result="effect1_innerShadow_1_11343"/>
</filter>
<clipPath id="clip0_1_11343">
<rect width="388" height="388" fill="white"/>
</clipPath>
</defs>
</svg>
